<?xml version="1.0" encoding="UTF-8" standalone="no"?>
<svg width="108px" height="95px" viewBox="0 0 108 95" version="1.1" xmlns="http://www.w3.org/2000/svg" xmlns:xlink="http://www.w3.org/1999/xlink">
    <!-- Generator: Sketch 41.2 (35397) - http://www.bohemiancoding.com/sketch -->
    <title>Group</title>
    <desc>Created with Sketch.</desc>
    <defs>
        <path d="M72.748,0 C55.736,0 50,15.099 50,15.099 C50,15.099 44.271,0 27.252,0 C10.245,0 0,16.214 0,29.578 C0,51.974 50,86.108 50,86.108 C50,86.108 100,51.982 100,29.582 C100,16.214 89.76,0 72.748,0 Z" id="path-1"></path>
        <mask id="mask-2" maskContentUnits="userSpaceOnUse" maskUnits="objectBoundingBox" x="-4" y="-4" width="108" height="94.108">
            <rect x="-4" y="-4" width="108" height="94.108" fill="white"></rect>
            <use xlink:href="#path-1" fill="black"></use>
        </mask>
    </defs>
    <g id="Page-1" stroke="none" stroke-width="1" fill="none" fill-rule="evenodd">
        <g id="Group" transform="translate(4.000000, 4.000000)">
            <path d="M72.748,0 C55.736,0 50,15.099 50,15.099 C50,15.099 44.271,0 27.252,0 C10.245,0 0,16.214 0,29.578 C0,51.974 50,86.108 50,86.108 C50,86.108 100,51.982 100,29.582 C100,16.214 89.76,0 72.748,0 Z" id="a" fill="#FF5454"></path>
            <use id="a-copy" stroke="#D0D0D0" mask="url(#mask-2)" stroke-width="8" xlink:href="#path-1"></use>
        </g>
    </g>
</svg>